<?xml version="1.0" encoding="utf-8"?>
<!-- Generator: Adobe Illustrator 16.0.4, SVG Export Plug-In . SVG Version: 6.00 Build 0)  -->
<!DOCTYPE svg PUBLIC "-//W3C//DTD SVG 1.1//EN" "http://www.w3.org/Graphics/SVG/1.1/DTD/svg11.dtd">
<svg version="1.1" xmlns="http://www.w3.org/2000/svg" xmlns:xlink="http://www.w3.org/1999/xlink" x="0px" y="0px" width="360px"
	 height="288px" viewBox="0 0 360 288" enable-background="new 0 0 360 288" xml:space="preserve">
<g id="Layer_2">
	<polyline opacity="0.4" fill="none" stroke="#A6A8AB" stroke-width="4.3761" stroke-miterlimit="3.25" points="179.643,151.748 
		172.928,159.405 172.928,64.772 165.875,73.798 	"/>
	
		<circle opacity="0.4" fill="none" stroke="#3EB9A9" stroke-width="2.5581" stroke-miterlimit="3.25" cx="170.571" cy="36.352" r="20.605"/>
	
		<circle opacity="0.4" fill="#FFFFFF" stroke="#CD1076" stroke-width="2.2417" stroke-miterlimit="3.25" cx="170.571" cy="36.352" r="13.398"/>
	
		<circle opacity="0.4" fill="#FFFFFF" stroke="#A168DD" stroke-width="1.7034" stroke-miterlimit="3.25" cx="170.571" cy="36.351" r="6.017"/>
	
		<circle opacity="0.4" fill="none" stroke="#3EB9A9" stroke-width="2.5581" stroke-miterlimit="3.25" cx="170.571" cy="187.234" r="20.605"/>
	
		<circle opacity="0.4" fill="#FFFFFF" stroke="#CD1076" stroke-width="2.2417" stroke-miterlimit="3.25" cx="170.571" cy="187.234" r="13.398"/>
	
		<circle opacity="0.4" fill="#A168DD" stroke="#A168DD" stroke-width="1.7034" stroke-miterlimit="3.25" cx="170.571" cy="187.234" r="6.017"/>
	
		<circle opacity="0.4" fill="none" stroke="#3EB9A9" stroke-width="2.5581" stroke-miterlimit="3.25" cx="320.155" cy="36.352" r="20.606"/>
	<path opacity="0.4" fill="#CD1076" stroke="#CD1076" stroke-width="2.2417" stroke-miterlimit="3.25" d="M320.154,22.953
		c-7.399,0-13.396,5.998-13.396,13.398c0,7.399,5.997,13.398,13.396,13.398c7.402,0,13.397-5.999,13.397-13.398
		C333.552,28.951,327.557,22.953,320.154,22.953z"/>
	
		<circle fill="#FFFFFF" stroke="#A168DD" stroke-width="1.7034" stroke-miterlimit="3.25" stroke-opacity="0.4" cx="320.155" cy="36.351" r="6.017"/>
	
		<circle opacity="0.4" fill="none" stroke="#3EB9A9" stroke-width="2.5581" stroke-miterlimit="3.25" cx="320.155" cy="187.234" r="20.606"/>
	<path opacity="0.4" fill="#CD1076" stroke="#CD1076" stroke-width="2.2417" stroke-miterlimit="3.25" d="M306.758,187.234
		c0,7.398,5.997,13.398,13.396,13.398c7.402,0,13.397-6,13.397-13.398c0-7.399-5.995-13.397-13.397-13.397
		C312.755,173.837,306.758,179.835,306.758,187.234z"/>
	
		<circle opacity="0.4" fill="#A168DD" stroke="#A168DD" stroke-width="1.7034" stroke-miterlimit="3.25" cx="320.155" cy="187.234" r="6.017"/>
	<polyline opacity="0.4" fill="none" stroke="#A6A8AB" stroke-width="4.3761" stroke-miterlimit="3.25" points="206.73,194.983 
		199.071,188.269 291.518,188.269 282.492,181.217 	"/>
	<polyline opacity="0.4" fill="none" stroke="#A6A8AB" stroke-width="4.3761" stroke-miterlimit="3.25" points="206.73,43.235 
		199.071,36.52 291.518,36.52 282.492,29.467 	"/>
	<polyline opacity="0.4" fill="none" stroke="#A6A8AB" stroke-width="4.3761" stroke-miterlimit="3.25" points="327.037,151.748 
		320.323,159.405 320.323,64.772 313.27,73.798 	"/>
	<linearGradient id="SVGID_1_" gradientUnits="userSpaceOnUse" x1="124.3647" y1="243.8447" x2="154.2948" y2="179.6595">
		<stop  offset="0" style="stop-color:#231F20"/>
		<stop  offset="0.2067" style="stop-color:#2C292A"/>
		<stop  offset="0.5608" style="stop-color:#464446"/>
		<stop  offset="1" style="stop-color:#6D6E70"/>
	</linearGradient>
	<polygon fill="url(#SVGID_1_)" points="171.256,189.095 168,199.667 164.523,198.633 165.554,192.983 109.788,237.047 
		106.418,232.931 168.396,186.234 	"/>
	
		<linearGradient id="SVGID_2_" gradientUnits="userSpaceOnUse" x1="116.8247" y1="71.7578" x2="146.7538" y2="7.5746" gradientTransform="matrix(0.948 0.3183 -0.3183 0.948 19.7587 -29.6436)">
		<stop  offset="0" style="stop-color:#231F20"/>
		<stop  offset="0.2067" style="stop-color:#2C292A"/>
		<stop  offset="0.5608" style="stop-color:#464446"/>
		<stop  offset="1" style="stop-color:#6D6E70"/>
	</linearGradient>
	<polygon fill="url(#SVGID_2_)" points="169.547,38.594 163.095,47.58 160.128,45.493 162.904,40.465 96.011,64.483 94.128,59.509 
		167.746,34.972 	"/>
	
		<linearGradient id="SVGID_3_" gradientUnits="userSpaceOnUse" x1="277.9971" y1="261.1777" x2="307.9254" y2="196.9963" gradientTransform="matrix(0.9547 -0.2977 0.2977 0.9547 -51.5089 89.7634)">
		<stop  offset="0" style="stop-color:#231F20"/>
		<stop  offset="0.2067" style="stop-color:#2C292A"/>
		<stop  offset="0.5608" style="stop-color:#464446"/>
		<stop  offset="1" style="stop-color:#6D6E70"/>
	</linearGradient>
	<polygon fill="url(#SVGID_3_)" points="320.115,190.125 320.154,201.188 316.527,201.234 315.829,195.535 275.706,254.2 
		271.265,251.273 316.532,188.246 	"/>
	
		<linearGradient id="SVGID_4_" gradientUnits="userSpaceOnUse" x1="317.1592" y1="102.8467" x2="347.0908" y2="38.6581" gradientTransform="matrix(0.9997 -0.0225 0.0225 0.9997 -45.8083 -1.5093)">
		<stop  offset="0" style="stop-color:#231F20"/>
		<stop  offset="0.2067" style="stop-color:#2C292A"/>
		<stop  offset="0.5608" style="stop-color:#464446"/>
		<stop  offset="1" style="stop-color:#6D6E70"/>
	</linearGradient>
	<polygon fill="url(#SVGID_4_)" points="319.217,38.379 316.2,49.023 312.702,48.066 313.604,42.396 258.844,87.704 255.384,83.665 
		316.292,35.584 	"/>
</g>
<g id="Layer_1">
	<circle fill="#3EB9A9" stroke="#3EB9A9" stroke-width="3.1073" stroke-miterlimit="3.25" cx="91.144" cy="67.197" r="25.029"/>
	<circle fill="#FFFFFF" stroke="#CD1076" stroke-width="2.723" stroke-miterlimit="3.25" cx="91.144" cy="67.197" r="16.275"/>
	<circle fill="#FFFFFF" stroke="#A168DD" stroke-width="2.0691" stroke-miterlimit="3.25" cx="91.144" cy="67.197" r="7.309"/>
	<circle fill="#3EB9A9" stroke="#3EB9A9" stroke-width="3.1073" stroke-miterlimit="3.25" cx="91.144" cy="250.472" r="25.029"/>
	<circle fill="#FFFFFF" stroke="#CD1076" stroke-width="2.723" stroke-miterlimit="3.25" cx="91.144" cy="250.472" r="16.275"/>
	<circle fill="#A168DD" stroke="#A168DD" stroke-width="2.0691" stroke-miterlimit="3.25" cx="91.144" cy="250.472" r="7.309"/>
	<circle fill="#3EB9A9" stroke="#3EB9A9" stroke-width="3.1073" stroke-miterlimit="3.25" cx="272.84" cy="67.197" r="25.03"/>
	<circle fill="#CD1076" stroke="#CD1076" stroke-width="2.723" stroke-miterlimit="3.25" cx="272.84" cy="67.197" r="16.274"/>
	<circle fill="#FFFFFF" stroke="#A168DD" stroke-width="2.0691" stroke-miterlimit="3.25" cx="272.841" cy="67.197" r="7.309"/>
	<circle fill="#3EB9A9" stroke="#3EB9A9" stroke-width="3.1073" stroke-miterlimit="3.25" cx="272.84" cy="250.472" r="25.03"/>
	<circle fill="#CD1076" stroke="#CD1076" stroke-width="2.723" stroke-miterlimit="3.25" cx="272.84" cy="250.472" r="16.274"/>
	<circle fill="#A168DD" stroke="#A168DD" stroke-width="2.0691" stroke-miterlimit="3.25" cx="272.841" cy="250.473" r="7.309"/>
	<g>
		<rect x="17.814" y="53.897" fill="none" width="39.399" height="43.752"/>
		<path fill="#CD1076" d="M30.766,78.747l-1.89-5.25c-0.525-1.47-0.945-2.73-1.365-4.061h-0.07c-0.77,1.225-1.505,2.45-2.555,4.13
			l-3.465,5.181h-4.866l8.996-12.041L21.28,55.155h4.306l1.785,5.215c0.455,1.435,0.805,2.485,1.155,3.78h0.07
			c0.84-1.435,1.54-2.59,2.31-3.815l3.57-5.18h4.866l-8.821,11.586l4.585,12.006H30.766z"/>
	</g>
	<g>
		<rect x="17.814" y="86.532" fill="none" width="49.847" height="59.115"/>
		<path fill="#A168DD" d="M23.24,111.381l1.855-9.696L20.51,87.789h4.34l1.855,6.721c0.525,2.03,0.77,3.08,0.98,4.13h0.07
			c0.63-1.12,1.4-2.45,2.45-4.201l4.236-6.65h4.83l-10.116,13.826l-1.855,9.766H23.24z"/>
	</g>
	<g opacity="0.4">
	</g>
	<polyline fill="none" stroke="#231F20" stroke-width="5.3156" stroke-miterlimit="3.25" points="135.065,259.886 125.763,251.729 
		238.055,251.729 227.091,243.163 	"/>
	<polyline fill="none" stroke="#231F20" stroke-width="5.3156" stroke-miterlimit="3.25" points="135.065,75.558 125.763,67.401 
		238.055,67.401 227.091,58.835 	"/>
	<polyline fill="none" stroke="#231F20" stroke-width="5.3156" stroke-miterlimit="3.25" points="102.163,207.367 94.007,216.669 
		94.007,101.719 85.44,112.683 	"/>
	<g>
	</g>
	<polyline fill="none" stroke="#231F20" stroke-width="5.3156" stroke-miterlimit="3.25" points="281.201,207.367 273.045,216.669 
		273.045,101.719 264.479,112.683 	"/>
	<path fill="none" stroke="#231F20" stroke-width="3.7744" stroke-miterlimit="3.25" d="M114,237"/>
	<path fill="none" stroke="#231F20" stroke-width="3.7744" stroke-miterlimit="3.25" d="M158.175,188.246"/>
	<g>
		<path fill="#3EB9A9" d="M36.773,45.119c-1.287,0.497-3.443,0.881-6.204,0.744c-6.119-0.303-9.848-4.272-9.545-10.391
			c0.242-4.895,2.547-8.951,6.099-11.333c2.539-1.732,5.522-2.53,8.913-2.362c2.588,0.128,4.444,0.851,5.086,1.338l-1.352,3.228
			c-0.749-0.458-2.336-0.957-4.397-1.059c-2.237-0.111-4.444,0.551-6.121,1.87c-2.153,1.716-3.628,4.622-3.797,8.048
			c-0.196,3.95,1.685,7.022,6.334,7.253c1.713,0.084,3.477-0.144,4.765-0.676L36.773,45.119z"/>
	</g>
	<g>
		<polygon points="72.62,111.175 69.766,106.824 68.832,111.175 67.422,111.175 70.048,98.842 71.457,98.842 69.801,106.683 
			74.699,103.247 75.81,103.247 71.175,106.489 74.241,111.175 		"/>
		<g>
			<path d="M78.819,107.261v2.897h2.786v0.74h-2.786v2.922H78.03v-2.922h-2.787v-0.74h2.787v-2.897H78.819z"/>
		</g>
		<rect x="67.372" y="98.578" fill="none" width="17.684" height="17.193"/>
	</g>
	<g>
		<polygon points="77.218,220.437 74.363,216.085 73.429,220.437 72.02,220.437 74.645,208.103 76.055,208.103 74.398,215.943 
			79.297,212.508 80.407,212.508 75.772,215.75 78.839,220.437 		"/>
		<g>
			<path d="M86.203,219.418v0.74h-6.362v-0.74H86.203z"/>
		</g>
		<rect x="71.851" y="207.839" fill="none" width="16.21" height="12.771"/>
	</g>
	<g>
		<g>
			<path d="M231.709,83.539c0.053-1.622,0.088-3.313-0.317-5.005c-0.634-2.82-2.149-5.692-3.014-7.014h1.745
				c0.775,1.163,2.062,4.018,2.591,6.644h0.07c0.775-1.428,2.009-3.948,2.009-6.045c0-0.265-0.018-0.441-0.018-0.599h1.463
				c0.035,0.158,0.053,0.37,0.053,0.582c0,2.185-1.374,5.005-3.014,7.49c-0.105,0.141-0.105,0.264-0.105,0.423
				c0.053,1.004,0.053,2.326,0.053,3.525H231.709z"/>
		</g>
		<g>
			<path d="M241.643,76.133v2.897h2.786v0.74h-2.786v2.922h-0.789v-2.922h-2.786v-0.74h2.786v-2.897H241.643z"/>
		</g>
		<rect x="229.94" y="71.773" fill="none" width="17.685" height="12.771"/>
	</g>
	<g>
		<g>
			<path d="M141.391,84.079c0.053-1.622,0.088-3.313-0.317-5.005c-0.634-2.82-2.15-5.692-3.014-7.014h1.745
				c0.775,1.163,2.062,4.018,2.59,6.644h0.071c0.775-1.428,2.009-3.948,2.009-6.045c0-0.265-0.018-0.441-0.018-0.599h1.463
				c0.035,0.158,0.053,0.37,0.053,0.582c0,2.185-1.375,5.005-3.014,7.49c-0.106,0.141-0.106,0.264-0.106,0.423
				c0.053,1.004,0.053,2.326,0.053,3.525H141.391z"/>
		</g>
		<g>
			<path d="M154.111,79.572v0.74h-6.362v-0.74H154.111z"/>
		</g>
		<rect x="139.797" y="72.51" fill="none" width="16.21" height="11.297"/>
	</g>
	<g>
		<path fill="#A6A8AB" d="M199.799,32.108c-1.084,0-2.08-0.275-2.957-0.723l0.102-0.533c0.775,0.292,1.602,0.464,2.479,0.464
			c1.064,0,1.943-1.135,2.199-2.304L202,27.224c-0.791,0.533-1.686,0.929-2.545,0.929c-2.064,0-2.562-1.754-2.08-4.042
			c0.498-2.321,1.908-4.041,4.057-4.041c0.723,0,1.395,0.172,1.996,0.447l0.051-0.275h1.377l-1.857,8.771
			C202.654,30.628,201.312,32.108,199.799,32.108z M203.273,21.239c-0.516-0.275-1.102-0.447-1.754-0.447
			c-1.395,0-2.254,1.703-2.598,3.319c-0.377,1.806-0.361,3.319,1.188,3.319c0.723,0,1.426-0.413,2.045-0.912L203.273,21.239z"/>
		<g>
			<path fill="#A6A8AB" d="M212.803,26.984v0.722h-6.213v-0.722H212.803z"/>
		</g>
		<rect x="196.365" y="19.903" fill="none" width="18.217" height="12.465"/>
	</g>
	<g>
		<path fill="#A6A8AB" d="M287.652,27.683c-1.084,0-2.081-0.275-2.958-0.722l0.104-0.533c0.773,0.292,1.599,0.464,2.476,0.464
			c1.066,0,1.943-1.135,2.201-2.305l0.379-1.788c-0.791,0.533-1.686,0.928-2.545,0.928c-2.063,0-2.562-1.753-2.081-4.041
			c0.499-2.321,1.909-4.041,4.058-4.041c0.723,0,1.395,0.172,1.996,0.447l0.051-0.275h1.376l-1.856,8.77
			C290.507,26.204,289.166,27.683,287.652,27.683z M291.126,16.814c-0.516-0.275-1.101-0.447-1.754-0.447
			c-1.394,0-2.253,1.703-2.597,3.319c-0.379,1.806-0.361,3.319,1.187,3.319c0.722,0,1.427-0.413,2.046-0.912L291.126,16.814z"/>
		<g>
			<path fill="#A6A8AB" d="M297.937,19.73v2.829h2.721v0.722h-2.721v2.854h-0.771v-2.854h-2.721V22.56h2.721V19.73H297.937z"/>
		</g>
		<rect x="284.525" y="15.479" fill="none" width="19.177" height="12.464"/>
	</g>
	<g>
		<path d="M147.832,39.156v0.824h-7.086v-0.824H147.832z"/>
	</g>
	<g>
		<path d="M136.012,40.697l1.128-5.316c0.164-0.785-0.278-1.457-1.031-1.457c-0.769,0-1.521,0.426-2.175,0.966l-1.244,5.807h-1.309
			l2.438-11.451h1.309l-1.096,5.137c0.85-0.67,1.816-1.21,2.781-1.21c1.178,0,1.881,1.014,1.636,2.208l-1.145,5.316H136.012z"/>
		<rect x="132.136" y="29.043" fill="none" width="16.875" height="11.858"/>
	</g>
	<g>
	</g>
	<g>
	</g>
	<g>
	</g>
	<g>
	</g>
	<g>
	</g>
	<g>
	</g>
</g>
</svg>
